<svg xmlns="http://www.w3.org/2000/svg" width="30" height="30" viewBox="0 0 30 30" fill="none">
    <path fill-rule="evenodd" clip-rule="evenodd" d="M12.9436 6.25H17.0564C18.8942 6.24998 20.3498 6.24997 21.489 6.40314C22.6614 6.56076 23.6104 6.89288 24.3588 7.64124C25.1071 8.38961 25.4392 9.33856 25.5969 10.511C25.75 11.6502 25.75 13.1058 25.75 14.9436V15.0564C25.75 16.8942 25.75 18.3498 25.5969 19.489C25.4392 20.6614 25.1071 21.6104 24.3588 22.3588C23.6104 23.1071 22.6614 23.4392 21.489 23.5969C20.3498 23.75 18.8942 23.75 17.0564 23.75H12.9436C11.1058 23.75 9.65019 23.75 8.51098 23.5969C7.33856 23.4392 6.38961 23.1071 5.64124 22.3588C4.89288 21.6104 4.56076 20.6614 4.40314 19.489C4.24997 18.3498 4.24998 16.8942 4.25 15.0564V14.9436C4.24998 13.1058 4.24997 11.6502 4.40314 10.511C4.56076 9.33856 4.89288 8.38961 5.64124 7.64124C6.38961 6.89288 7.33856 6.56076 8.51098 6.40314C9.65019 6.24997 11.1058 6.24998 12.9436 6.25ZM8.71085 7.88976C7.70476 8.02502 7.12511 8.27869 6.7019 8.7019C6.27869 9.12511 6.02502 9.70476 5.88976 10.7108C5.75159 11.7385 5.75 13.0932 5.75 15C5.75 16.9068 5.75159 18.2615 5.88976 19.2892C6.02502 20.2952 6.27869 20.8749 6.7019 21.2981C7.12511 21.7213 7.70476 21.975 8.71085 22.1102C9.73851 22.2484 11.0932 22.25 13 22.25H17C18.9068 22.25 20.2615 22.2484 21.2892 22.1102C22.2952 21.975 22.8749 21.7213 23.2981 21.2981C23.7213 20.8749 23.975 20.2952 24.1102 19.2892C24.2484 18.2615 24.25 16.9068 24.25 15C24.25 13.0932 24.2484 11.7385 24.1102 10.7108C23.975 9.70476 23.7213 9.12511 23.2981 8.7019C22.8749 8.27869 22.2952 8.02502 21.2892 7.88976C20.2615 7.75159 18.9068 7.75 17 7.75H13C11.0932 7.75 9.73851 7.75159 8.71085 7.88976ZM8.42383 10.5199C8.68901 10.2017 9.16193 10.1587 9.48014 10.4238L11.639 12.2229C12.572 13.0004 13.2197 13.5384 13.7666 13.8901C14.2959 14.2306 14.6549 14.3449 15 14.3449C15.3451 14.3449 15.7041 14.2306 16.2334 13.8901C16.7803 13.5384 17.428 13.0004 18.361 12.2229L20.5199 10.4238C20.8381 10.1587 21.311 10.2017 21.5762 10.5199C21.8413 10.8381 21.7983 11.311 21.4801 11.5762L19.2836 13.4066C18.3973 14.1452 17.6789 14.7439 17.0448 15.1517C16.3843 15.5765 15.7411 15.8449 15 15.8449C14.2589 15.8449 13.6157 15.5765 12.9552 15.1517C12.3211 14.7439 11.6027 14.1452 10.7164 13.4066L8.51986 11.5762C8.20165 11.311 8.15866 10.8381 8.42383 10.5199Z" fill="#F7BD01"/>
</svg>