<svg xmlns="http://www.w3.org/2000/svg" width="30" height="30" viewBox="0 0 30 30" fill="none">
    <path fill-rule="evenodd" clip-rule="evenodd" d="M9.00748 6.40686C10.6875 4.72679 13.5227 4.85451 14.6925 6.95063L15.3415 8.11356C16.1054 9.48238 15.7799 11.2095 14.6616 12.3414C14.6467 12.3618 14.5678 12.4768 14.5579 12.6776C14.5454 12.9339 14.6364 13.5267 15.5548 14.4451C16.473 15.3632 17.0657 15.4545 17.3221 15.442C17.5231 15.4322 17.6381 15.3533 17.6585 15.3383C18.7905 14.2201 20.5176 13.8945 21.8864 14.6584L23.0493 15.3075C25.1455 16.4773 25.2732 19.3124 23.5931 20.9925C22.6944 21.8911 21.4995 22.6896 20.0953 22.7429C18.0144 22.8218 14.5592 22.2844 11.1374 18.8626C7.71559 15.4408 7.17821 11.9856 7.2571 9.90463C7.31033 8.50044 8.10882 7.30552 9.00748 6.40686ZM13.3827 7.68163C12.7837 6.60828 11.174 6.36169 10.0681 7.46752C9.29279 8.24287 8.78873 9.09868 8.75602 9.96146C8.69023 11.6968 9.11867 14.7226 12.198 17.8019C15.2774 20.8813 18.3032 21.3097 20.0385 21.2439C20.9013 21.2112 21.7571 20.7072 22.5324 19.9318C23.6383 18.826 23.3917 17.2163 22.3183 16.6173L21.1554 15.9683C20.432 15.5645 19.4159 15.7023 18.7026 16.4156L18.7023 16.4158C18.6323 16.4858 18.1865 16.9018 17.395 16.9403C16.5848 16.9797 15.604 16.6156 14.4942 15.5058C13.384 14.3956 13.0201 13.4146 13.0597 12.6042C13.0985 11.8127 13.5147 11.3671 13.5844 11.2975L13.5844 11.2974C14.2977 10.5841 14.4354 9.56797 14.0317 8.84456L13.3827 7.68163Z" fill="#F7BD01"/>
</svg>